<svg xmlns="http://www.w3.org/2000/svg" width="300" height="210" viewBox="0 0 300 210" role="img"><rect width="300" height="210" fill="#ffffff"/><line x1="34.0" y1="14" x2="34.0" y2="182" stroke="#888888" stroke-width="0.7"/><line x1="65.5" y1="14" x2="65.5" y2="182" stroke="#888888" stroke-width="0.7"/><line x1="97.0" y1="14" x2="97.0" y2="182" stroke="#888888" stroke-width="0.7"/><line x1="128.5" y1="14" x2="128.5" y2="182" stroke="#888888" stroke-width="0.7"/><line x1="160.0" y1="14" x2="160.0" y2="182" stroke="#1a1a1a" stroke-width="1.3"/><line x1="191.5" y1="14" x2="191.5" y2="182" stroke="#888888" stroke-width="0.7"/><line x1="223.0" y1="14" x2="223.0" y2="182" stroke="#888888" stroke-width="0.7"/><line x1="254.5" y1="14" x2="254.5" y2="182" stroke="#888888" stroke-width="0.7"/><line x1="286.0" y1="14" x2="286.0" y2="182" stroke="#888888" stroke-width="0.7"/><line x1="34" y1="182.0" x2="286" y2="182.0" stroke="#888888" stroke-width="0.7"/><line x1="34" y1="148.4" x2="286" y2="148.4" stroke="#1a1a1a" stroke-width="1.3"/><line x1="34" y1="114.8" x2="286" y2="114.8" stroke="#888888" stroke-width="0.7"/><line x1="34" y1="81.2" x2="286" y2="81.2" stroke="#888888" stroke-width="0.7"/><line x1="34" y1="47.6" x2="286" y2="47.6" stroke="#888888" stroke-width="0.7"/><line x1="34" y1="14.0" x2="286" y2="14.0" stroke="#888888" stroke-width="0.7"/><defs><marker id="pgar" markerWidth="9" markerHeight="9" refX="7" refY="3" orient="auto"><path d="M0,0 L7,3 L0,6 z" fill="#1a1a1a"/></marker></defs><line x1="34" y1="148.4" x2="286" y2="148.4" stroke="#1a1a1a" stroke-width="1.8" marker-end="url(#pgar)"/><line x1="160.0" y1="182" x2="160.0" y2="14" stroke="#1a1a1a" stroke-width="1.8" marker-end="url(#pgar)"/><text x="280.0" y="164.4" font-family="'Microsoft JhengHei','Noto Sans TC','PingFang TC',Arial,sans-serif" font-size="13" fill="#1a1a1a" text-anchor="end" dominant-baseline="middle">x</text><text x="170.0" y="26.0" font-family="'Microsoft JhengHei','Noto Sans TC','PingFang TC',Arial,sans-serif" font-size="13" fill="#1a1a1a" text-anchor="start" dominant-baseline="middle">y</text><text x="154.0" y="164.4" font-family="'Microsoft JhengHei','Noto Sans TC','PingFang TC',Arial,sans-serif" font-size="11" fill="#1a1a1a" text-anchor="end" dominant-baseline="middle">O</text><text x="65.5" y="164.4" font-family="'Microsoft JhengHei','Noto Sans TC','PingFang TC',Arial,sans-serif" font-size="10.5" fill="#1a1a1a" text-anchor="middle" dominant-baseline="middle">−3</text><text x="97.0" y="164.4" font-family="'Microsoft JhengHei','Noto Sans TC','PingFang TC',Arial,sans-serif" font-size="10.5" fill="#1a1a1a" text-anchor="middle" dominant-baseline="middle">−2</text><text x="128.5" y="164.4" font-family="'Microsoft JhengHei','Noto Sans TC','PingFang TC',Arial,sans-serif" font-size="10.5" fill="#1a1a1a" text-anchor="middle" dominant-baseline="middle">−1</text><text x="191.5" y="164.4" font-family="'Microsoft JhengHei','Noto Sans TC','PingFang TC',Arial,sans-serif" font-size="10.5" fill="#1a1a1a" text-anchor="middle" dominant-baseline="middle">1</text><text x="223.0" y="164.4" font-family="'Microsoft JhengHei','Noto Sans TC','PingFang TC',Arial,sans-serif" font-size="10.5" fill="#1a1a1a" text-anchor="middle" dominant-baseline="middle">2</text><text x="254.5" y="164.4" font-family="'Microsoft JhengHei','Noto Sans TC','PingFang TC',Arial,sans-serif" font-size="10.5" fill="#1a1a1a" text-anchor="middle" dominant-baseline="middle">3</text><text x="154.0" y="117.8" font-family="'Microsoft JhengHei','Noto Sans TC','PingFang TC',Arial,sans-serif" font-size="10.5" fill="#1a1a1a" text-anchor="end" dominant-baseline="middle">1</text><text x="154.0" y="84.2" font-family="'Microsoft JhengHei','Noto Sans TC','PingFang TC',Arial,sans-serif" font-size="10.5" fill="#1a1a1a" text-anchor="end" dominant-baseline="middle">2</text><text x="154.0" y="50.6" font-family="'Microsoft JhengHei','Noto Sans TC','PingFang TC',Arial,sans-serif" font-size="10.5" fill="#1a1a1a" text-anchor="end" dominant-baseline="middle">3</text><polyline points="34.0,14.0 35.0,15.1 36.1,16.2 37.2,17.4 38.2,18.5 39.2,19.6 40.3,20.7 41.4,21.8 42.4,23.0 43.4,24.1 44.5,25.2 45.5,26.3 46.6,27.4 47.7,28.6 48.7,29.7 49.8,30.8 50.8,31.9 51.8,33.0 52.9,34.2 54.0,35.3 55.0,36.4 56.1,37.5 57.1,38.6 58.1,39.8 59.2,40.9 60.2,42.0 61.3,43.1 62.3,44.2 63.4,45.4 64.5,46.5 65.5,47.6 66.5,48.7 67.6,49.8 68.7,51.0 69.7,52.1 70.8,53.2 71.8,54.3 72.8,55.4 73.9,56.6 74.9,57.7 76.0,58.8 77.1,59.9 78.1,61.0 79.2,62.2 80.2,63.3 81.2,64.4 82.3,65.5 83.3,66.6 84.4,67.8 85.4,68.9 86.5,70.0 87.6,71.1 88.6,72.2 89.7,73.4 90.7,74.5 91.8,75.6 92.8,76.7 93.8,77.8 94.9,79.0 96.0,80.1 97.0,81.2 98.0,82.3 99.1,83.4 100.2,84.6 101.2,85.7 102.2,86.8 103.3,87.9 104.4,89.0 105.4,90.2 106.4,91.3 107.5,92.4 108.5,93.5 109.6,94.6 110.6,95.8 111.7,96.9 112.8,98.0 113.8,99.1 114.9,100.2 115.9,101.4 117.0,102.5 118.0,103.6 119.1,104.7 120.1,105.8 121.1,107.0 122.2,108.1 123.2,109.2 124.3,110.3 125.3,111.4 126.4,112.6 127.5,113.7 128.5,114.8 129.6,115.9 130.6,117.0 131.7,118.2 132.7,119.3 133.8,120.4 134.8,121.5 135.9,122.6 136.9,123.8 137.9,124.9 139.0,126.0 140.1,127.1 141.1,128.2 142.1,129.4 143.2,130.5 144.2,131.6 145.3,132.7 146.4,133.8 147.4,135.0 148.4,136.1 149.5,137.2 150.6,138.3 151.6,139.4 152.6,140.6 153.7,141.7 154.8,142.8 155.8,143.9 156.8,145.0 157.9,146.2 158.9,147.3" fill="none" stroke="#1a1a1a" stroke-width="2.6"/><text x="93.8" y="30.8" font-family="'Microsoft JhengHei','Noto Sans TC','PingFang TC',Arial,sans-serif" font-size="12" fill="#1a1a1a" text-anchor="start" dominant-baseline="middle" font-weight="700">y = −x</text></svg>