<svg xmlns="http://www.w3.org/2000/svg" width="580" height="200" viewBox="0 0 580 200" role="img"><rect width="580" height="200" fill="#ffffff"/><text x="78.0" y="16.0" font-family="'Microsoft JhengHei','Noto Sans TC','PingFang TC',Arial,sans-serif" font-size="13" fill="#1a1a1a" text-anchor="start" dominant-baseline="middle" font-weight="700">一整條 ＝ 進價（100%）；加價與打折各有各的基準</text><text x="68.0" y="51.0" font-family="'Microsoft JhengHei','Noto Sans TC','PingFang TC',Arial,sans-serif" font-size="13" fill="#1a1a1a" text-anchor="end" dominant-baseline="middle">進價</text><rect x="78.0" y="30.0" width="290.0" height="42.0" rx="0" fill="#ffffff" stroke="#1a1a1a" stroke-width="1.4"/><text x="223.0" y="51.0" font-family="'Microsoft JhengHei','Noto Sans TC','PingFang TC',Arial,sans-serif" font-size="13" fill="#1a1a1a" text-anchor="middle" dominant-baseline="middle">進價 250 元</text><text x="68.0" y="109.0" font-family="'Microsoft JhengHei','Noto Sans TC','PingFang TC',Arial,sans-serif" font-size="13" fill="#1a1a1a" text-anchor="end" dominant-baseline="middle">標價</text><rect x="78.0" y="88.0" width="290.0" height="42.0" rx="0" fill="#ffffff" stroke="#1a1a1a" stroke-width="1.4"/><text x="223.0" y="109.0" font-family="'Microsoft JhengHei','Noto Sans TC','PingFang TC',Arial,sans-serif" font-size="13" fill="#1a1a1a" text-anchor="middle" dominant-baseline="middle">進價的 100%</text><rect x="368.0" y="88.0" width="116.0" height="42.0" rx="0" fill="#ffffff" stroke="#1a1a1a" stroke-width="1.4"/><text x="426.0" y="109.0" font-family="'Microsoft JhengHei','Noto Sans TC','PingFang TC',Arial,sans-serif" font-size="13" fill="#1a1a1a" text-anchor="middle" dominant-baseline="middle">加 40%</text><path d="M 490.0 88 q 12 0 12 10.5 q 0 10.5 12 10.5 q -12 0 -12 10.5 q 0 10.5 -12 10.5" fill="none" stroke="#1a1a1a" stroke-width="1.3"/><text x="520.0" y="109.0" font-family="'Microsoft JhengHei','Noto Sans TC','PingFang TC',Arial,sans-serif" font-size="13" fill="#1a1a1a" text-anchor="start" dominant-baseline="middle">350 元</text><text x="68.0" y="167.0" font-family="'Microsoft JhengHei','Noto Sans TC','PingFang TC',Arial,sans-serif" font-size="13" fill="#1a1a1a" text-anchor="end" dominant-baseline="middle">售價</text><rect x="78.0" y="146.0" width="290.0" height="42.0" rx="0" fill="#ffffff" stroke="#1a1a1a" stroke-width="1.4"/><text x="223.0" y="167.0" font-family="'Microsoft JhengHei','Noto Sans TC','PingFang TC',Arial,sans-serif" font-size="13" fill="#1a1a1a" text-anchor="middle" dominant-baseline="middle">進價 250 元</text><rect x="368.0" y="146.0" width="34.8" height="42.0" rx="0" fill="#ffffff" stroke="#1a1a1a" stroke-width="1.4"/><text x="385.4" y="167.0" font-family="'Microsoft JhengHei','Noto Sans TC','PingFang TC',Arial,sans-serif" font-size="13" fill="#1a1a1a" text-anchor="middle" dominant-baseline="middle">賺</text><path d="M 408.79999999999995 146 q 12 0 12 10.5 q 0 10.5 12 10.5 q -12 0 -12 10.5 q 0 10.5 -12 10.5" fill="none" stroke="#1a1a1a" stroke-width="1.3"/><text x="438.8" y="167.0" font-family="'Microsoft JhengHei','Noto Sans TC','PingFang TC',Arial,sans-serif" font-size="13" fill="#1a1a1a" text-anchor="start" dominant-baseline="middle">280 元</text></svg>