<svg xmlns="http://www.w3.org/2000/svg" width="300" height="232" viewBox="0 0 300 232" role="img"><rect width="300" height="232" fill="#ffffff"/><line x1="52.7" y1="14" x2="52.7" y2="204" stroke="#888888" stroke-width="0.7"/><line x1="146.0" y1="14" x2="146.0" y2="204" stroke="#1a1a1a" stroke-width="1.3"/><line x1="239.3" y1="14" x2="239.3" y2="204" stroke="#888888" stroke-width="0.7"/><line x1="34" y1="176.9" x2="286" y2="176.9" stroke="#1a1a1a" stroke-width="1.3"/><line x1="34" y1="131.6" x2="286" y2="131.6" stroke="#888888" stroke-width="0.7"/><line x1="34" y1="86.4" x2="286" y2="86.4" stroke="#888888" stroke-width="0.7"/><line x1="34" y1="41.1" x2="286" y2="41.1" stroke="#888888" stroke-width="0.7"/><defs><marker id="pgar" markerWidth="9" markerHeight="9" refX="7" refY="3" orient="auto"><path d="M0,0 L7,3 L0,6 z" fill="#1a1a1a"/></marker></defs><line x1="34" y1="176.9" x2="286" y2="176.9" stroke="#1a1a1a" stroke-width="1.8" marker-end="url(#pgar)"/><line x1="146.0" y1="204" x2="146.0" y2="14" stroke="#1a1a1a" stroke-width="1.8" marker-end="url(#pgar)"/><text x="280.0" y="192.9" font-family="'Microsoft JhengHei','Noto Sans TC','PingFang TC',Arial,sans-serif" font-size="13" fill="#1a1a1a" text-anchor="end" dominant-baseline="middle">x</text><text x="156.0" y="26.0" font-family="'Microsoft JhengHei','Noto Sans TC','PingFang TC',Arial,sans-serif" font-size="13" fill="#1a1a1a" text-anchor="start" dominant-baseline="middle">y</text><text x="140.0" y="192.9" font-family="'Microsoft JhengHei','Noto Sans TC','PingFang TC',Arial,sans-serif" font-size="11" fill="#1a1a1a" text-anchor="end" dominant-baseline="middle">O</text><text x="52.7" y="192.9" font-family="'Microsoft JhengHei','Noto Sans TC','PingFang TC',Arial,sans-serif" font-size="10.5" fill="#1a1a1a" text-anchor="middle" dominant-baseline="middle">−1</text><text x="239.3" y="192.9" font-family="'Microsoft JhengHei','Noto Sans TC','PingFang TC',Arial,sans-serif" font-size="10.5" fill="#1a1a1a" text-anchor="middle" dominant-baseline="middle">1</text><text x="140.0" y="134.6" font-family="'Microsoft JhengHei','Noto Sans TC','PingFang TC',Arial,sans-serif" font-size="10.5" fill="#1a1a1a" text-anchor="end" dominant-baseline="middle">1</text><text x="140.0" y="89.4" font-family="'Microsoft JhengHei','Noto Sans TC','PingFang TC',Arial,sans-serif" font-size="10.5" fill="#1a1a1a" text-anchor="end" dominant-baseline="middle">2</text><text x="140.0" y="44.1" font-family="'Microsoft JhengHei','Noto Sans TC','PingFang TC',Arial,sans-serif" font-size="10.5" fill="#1a1a1a" text-anchor="end" dominant-baseline="middle">3</text><polyline points="34.0,7.8 35.0,9.9 36.1,11.9 37.1,13.9 38.2,15.9 39.2,17.9 40.3,19.9 41.4,21.8 42.4,23.7 43.5,25.6 44.5,27.4 45.5,29.3 46.6,31.1 47.6,32.9 48.7,34.7 49.7,36.4 50.8,38.1 51.8,39.8 52.9,41.5 54.0,43.2 55.0,44.8 56.1,46.4 57.1,48.0 58.2,49.6 59.2,51.2 60.2,52.7 61.3,54.3 62.3,55.8 63.4,57.3 64.5,58.7 65.5,60.2 66.5,61.6 67.6,63.0 68.7,64.4 69.7,65.8 70.8,67.2 71.8,68.5 72.8,69.8 73.9,71.2 74.9,72.5 76.0,73.7 77.0,75.0 78.1,76.3 79.2,77.5 80.2,78.7 81.2,79.9 82.3,81.1 83.3,82.3 84.4,83.4 85.4,84.6 86.5,85.7 87.6,86.8 88.6,88.0 89.7,89.0 90.7,90.1 91.8,91.2 92.8,92.2 93.8,93.3 94.9,94.3 96.0,95.3 97.0,96.3 98.0,97.3 99.1,98.3 100.2,99.3 101.2,100.2 102.2,101.1 103.3,102.1 104.4,103.0 105.4,103.9 106.4,104.8 107.5,105.7 108.5,106.6 109.6,107.4 110.7,108.3 111.7,109.1 112.8,109.9 113.8,110.8 114.9,111.6 115.9,112.4 117.0,113.2 118.0,114.0 119.1,114.7 120.1,115.5 121.1,116.2 122.2,117.0 123.2,117.7 124.3,118.5 125.3,119.2 126.4,119.9 127.4,120.6 128.5,121.3 129.6,122.0 130.6,122.6 131.7,123.3 132.7,124.0 133.8,124.6 134.8,125.2 135.9,125.9 136.9,126.5 137.9,127.1 139.0,127.7 140.1,128.3 141.1,128.9 142.2,129.5 143.2,130.1 144.2,130.7 145.3,131.2 146.4,131.8 147.4,132.4 148.4,132.9 149.5,133.4 150.6,134.0 151.6,134.5 152.6,135.0 153.7,135.5 154.8,136.0 155.8,136.5 156.9,137.0 157.9,137.5 158.9,138.0 160.0,138.5 161.1,139.0 162.1,139.4 163.1,139.9 164.2,140.3 165.2,140.8 166.3,141.2 167.3,141.7 168.4,142.1 169.4,142.5 170.5,143.0 171.6,143.4 172.6,143.8 173.7,144.2 174.7,144.6 175.8,145.0 176.8,145.4 177.9,145.8 178.9,146.1 179.9,146.5 181.0,146.9 182.1,147.3 183.1,147.6 184.2,148.0 185.2,148.3 186.2,148.7 187.3,149.0 188.3,149.4 189.4,149.7 190.5,150.0 191.5,150.4 192.5,150.7 193.6,151.0 194.7,151.3 195.7,151.7 196.7,152.0 197.8,152.3 198.8,152.6 199.9,152.9 200.9,153.2 202.0,153.5 203.1,153.7 204.1,154.0 205.1,154.3 206.2,154.6 207.2,154.9 208.3,155.1 209.3,155.4 210.4,155.7 211.4,155.9 212.5,156.2 213.6,156.4 214.6,156.7 215.7,156.9 216.7,157.2 217.8,157.4 218.8,157.7 219.9,157.9 220.9,158.1 221.9,158.4 223.0,158.6 224.1,158.8 225.1,159.0 226.2,159.2 227.2,159.5 228.2,159.7 229.3,159.9 230.3,160.1 231.4,160.3 232.4,160.5 233.5,160.7 234.6,160.9 235.6,161.1 236.7,161.3 237.7,161.5 238.8,161.7 239.8,161.9 240.9,162.0 241.9,162.2 243.0,162.4 244.0,162.6 245.0,162.8 246.1,162.9 247.1,163.1 248.2,163.3 249.2,163.4 250.3,163.6 251.4,163.8 252.4,163.9 253.5,164.1 254.5,164.2 255.5,164.4 256.6,164.6 257.6,164.7 258.7,164.9 259.8,165.0 260.8,165.1 261.9,165.3 262.9,165.4 263.9,165.6 265.0,165.7 266.0,165.8 267.1,166.0 268.1,166.1 269.2,166.2 270.2,166.4 271.3,166.5 272.4,166.6 273.4,166.8 274.5,166.9 275.5,167.0 276.6,167.1 277.6,167.2 278.6,167.4 279.7,167.5 280.8,167.6 281.8,167.7 282.9,167.8 283.9,167.9 285.0,168.0 286.0,168.2" fill="none" stroke="#1a1a1a" stroke-width="2.6"/><text x="178.7" y="59.2" font-family="'Microsoft JhengHei','Noto Sans TC','PingFang TC',Arial,sans-serif" font-size="12" fill="#1a1a1a" text-anchor="start" dominant-baseline="middle" font-weight="700">y = (1/3)ˣ</text></svg>